<?xml version="1.0" encoding="UTF-8"?>
<svg width="1200pt" height="1200pt" version="1.1" viewBox="0 0 1200 1200" xmlns="http://www.w3.org/2000/svg">
 <path d="m975 636.19v262.92c0 61.875-49.969 112.12-111.84 112.5l-135 0.79688-101.67 101.62c-7.0312 7.0312-16.594 10.969-26.578 10.969s-19.547-4.0312-26.578-11.156l-101.48-102.66h-284.34c-29.859 0-58.453-11.859-79.547-33-21.094-21.047-32.953-49.688-32.953-79.5v-712.5c0-29.859 11.859-58.5 32.953-79.547 21.094-21.141 49.688-32.953 79.547-32.953h675c29.859 0 58.453 11.812 79.547 32.953 4.0312 3.9844 7.6875 8.2969 11.016 12.797-45.422 2.8594-88.406 22.125-120.74 54.516l-290.68 290.68c-24 24-41.062 54.141-49.312 87.094l-42.75 171c-9.5625 38.344 1.6406 78.891 29.625 106.83 27.938 27.938 68.484 39.188 106.83 29.578l171-42.75c32.953-8.25 63.047-25.266 87.094-49.312zm-637.5-415.13c-20.672 0-37.5 16.781-37.5 37.5 0 20.672 16.828 37.5 37.5 37.5s37.5-16.828 37.5-37.5c0-20.719-16.828-37.5-37.5-37.5zm-150 0c-20.719 0-37.5 16.781-37.5 37.5 0 20.672 16.781 37.5 37.5 37.5s37.5-16.828 37.5-37.5c0-20.719-16.781-37.5-37.5-37.5zm0 228.94h300c20.672 0 37.5-16.828 37.5-37.5s-16.828-37.5-37.5-37.5h-300c-20.719 0-37.5 16.828-37.5 37.5s16.781 37.5 37.5 37.5zm0 150h206.26c20.719 0 37.5-16.828 37.5-37.5s-16.781-37.5-37.5-37.5h-206.26c-20.719 0-37.5 16.828-37.5 37.5s16.781 37.5 37.5 37.5zm0 150h150c20.672 0 37.5-16.828 37.5-37.5s-16.828-37.5-37.5-37.5h-150c-20.719 0-37.5 16.828-37.5 37.5s16.781 37.5 37.5 37.5zm442.92-268.08 185.86-185.86 196.4 196.36-185.9 185.9zm238.92-238.92 16.031-15.984c21.047-21.141 49.688-32.953 79.547-32.953 29.812 0 58.453 11.812 79.547 32.953l37.266 37.266c21.094 21.094 32.953 49.734 32.953 79.547 0 29.859-11.859 58.453-32.953 79.547l-16.031 16.031zm-97.5 486.47c-10.125 6.4219-21.281 11.203-33.047 14.156l-170.95 42.75c-12.797 3.1875-26.297-0.5625-35.625-9.8438-9.3281-9.3281-13.078-22.828-9.8438-35.625l42.75-171c2.9062-11.719 7.7344-22.875 14.156-33.047z" fill-rule="evenodd"/>
</svg>
